<svg xmlns="http://www.w3.org/2000/svg" viewBox="0 0 256 256" role="img" aria-label="Codex Pet State icon">
  <rect width="256" height="256" rx="48" fill="#2F6F73"/>
  <path d="M62 146c0-42 28-74 66-74s66 32 66 74c0 31-20 48-66 48s-66-17-66-48z" fill="#F7F4EA"/>
  <path d="M81 87l-20-25c-5-6 2-15 9-11l31 17M175 87l20-25c5-6-2-15-9-11l-31 17" fill="#F7F4EA"/>
  <circle cx="104" cy="136" r="10" fill="#1F2933"/>
  <circle cx="152" cy="136" r="10" fill="#1F2933"/>
  <path d="M113 162c9 8 21 8 30 0" fill="none" stroke="#1F2933" stroke-width="8" stroke-linecap="round"/>
  <path d="M54 47h148" stroke="#9BE7C3" stroke-width="10" stroke-linecap="round"/>
  <path d="M70 47c16 0 16-22 32-22s16 22 32 22 16-22 32-22 16 22 32 22" fill="none" stroke="#F7F4EA" stroke-width="8" stroke-linecap="round"/>
</svg>
